<?xml version='1.0' encoding='UTF-8'?>
<svg xmlns="http://www.w3.org/2000/svg" version="1.1" width="50" height="50" viewBox="188.450029538075 193.13772574595 904.0858493576001 910.3541575856001">
<path d="M0 0 C1.15772415 -0.00175232 2.3154483 -0.00350464 3.508255 -0.00531006 C7.29563949 -0.00967431 11.08297645 -0.00681041 14.87036133 -0.00341797 C17.52208005 -0.00409243 20.17379738 -0.00506236 22.82551575 -0.00631714 C28.36545315 -0.00812813 33.90537714 -0.00575996 39.4453125 -0.00097656 C45.82899712 0.00447207 52.21264982 0.00269471 58.59633368 -0.00280297 C64.10495372 -0.00735507 69.61356421 -0.00797464 75.12218553 -0.0053643 C78.40032802 -0.00381408 81.67845241 -0.00397236 84.95659447 -0.00690079 C88.61040765 -0.00944965 92.26416007 -0.00555559 95.91796875 0 C96.98884735 -0.00202423 98.05972595 -0.00404846 99.16305542 -0.00613403 C117.30824533 0.04479141 117.30824533 0.04479141 122.76489258 5.12939453 C126.73909245 11.71855046 129.16178962 18.78851911 131.32739258 26.12939453 C131.6503833 27.20084717 131.97337402 28.2722998 132.30615234 29.3762207 C135.69352261 40.70515303 138.94439076 52.07523112 142.20239258 63.44189453 C142.60592453 64.84894653 142.60592453 64.84894653 143.01760864 66.28442383 C143.78882146 68.97811139 144.55680903 71.67269421 145.32348633 74.36767578 C145.55542694 75.17811844 145.78736755 75.9885611 146.02633667 76.82356262 C146.34829514 77.95975288 146.34829514 77.95975288 146.67675781 79.11889648 C146.87719696 79.81834381 147.07763611 80.51779114 147.28414917 81.23843384 C147.76489258 83.12939453 147.76489258 83.12939453 148.10498047 86.05200195 C148.5639133 88.33933518 148.5639133 88.33933518 150.87719727 89.24169922 C151.83013672 89.53463867 152.78307617 89.82757813 153.76489258 90.12939453 C156.17046552 91.188015 158.57089205 92.2551488 160.96801758 93.33251953 C162.42283139 93.98386945 163.87775147 94.63498204 165.33276367 95.28588867 C166.09611023 95.62750031 166.85945679 95.96911194 167.64593506 96.32107544 C174.18375897 99.24181328 180.7328975 102.13712922 187.28234863 105.03167725 C188.92081141 105.75616348 190.5589214 106.48144812 192.19665527 107.20758057 C196.78608846 109.24201003 201.38169919 111.26094806 205.98840332 113.25598145 C207.41530178 113.8766924 208.83990711 114.5027034 210.26208496 115.13415527 C212.24406966 116.01291673 214.23345644 116.87215888 216.22583008 117.72705078 C217.34779785 118.2169751 218.46976563 118.70689941 219.62573242 119.21166992 C223.93297682 120.47088066 227.01395114 119.87391249 231.08911133 118.14111328 C244.19822075 110.79567841 256.73573698 102.46495962 269.33398438 94.28613281 C277.08901517 89.25735978 284.8965715 84.31336936 292.73120117 79.40966797 C294.47607284 78.31121575 296.20955936 77.19471467 297.94067383 76.07470703 C306.36754352 70.7295909 306.36754352 70.7295909 311.76489258 71.12939453 C317.29294585 74.48386763 322.08443774 79.07410827 326.7590332 83.50683594 C327.39934731 84.10955133 328.03966141 84.71226673 328.69937897 85.33324623 C336.22033383 92.44946738 343.54380313 99.76352309 350.85864258 107.09033203 C352.34486632 108.57587961 353.83123825 110.06127894 355.31774902 111.54653931 C358.40168748 114.62901867 361.48384882 117.71326048 364.56469727 120.79882812 C368.49596226 124.73582472 372.43174925 128.66826544 376.36885834 132.59941673 C379.42655803 135.65349214 382.48185899 138.70995834 385.53645325 141.76713943 C386.98687057 143.21821904 388.43801777 144.66856952 389.88993835 146.11814499 C391.91775422 148.14339949 393.94230106 150.1718689 395.96606445 152.20117188 C396.55318207 152.78626526 397.14029968 153.37135864 397.74520874 153.97418213 C401.35929274 157.60646099 404.77420458 161.36399672 408.10645294 165.25675392 C409.83810405 167.21206187 411.65244565 169.04892258 413.51489258 170.87939453 C414.08723633 171.45302734 414.65958008 172.02666016 415.24926758 172.61767578 C416.41162455 173.77703699 417.58575471 174.92460472 418.76489258 176.06689453 C420.39575697 179.43055234 419.66527936 182.63418939 418.76489258 186.12939453 C417.22004646 189.4909251 415.30603581 192.57024424 413.32739258 195.69189453 C412.51322876 197.01060547 412.51322876 197.01060547 411.68261719 198.35595703 C407.7170344 204.73711441 403.60149936 211.01408016 399.38989258 217.23486328 C390.50223206 230.3715092 381.92574398 243.7340217 373.83813477 257.37890625 C372.92809798 258.86320192 371.92200391 260.28792561 370.89770508 261.69580078 C368.46266021 266.9269489 370.98225927 271.95438253 372.81176758 277.06689453 C373.70356392 279.424579 374.6052228 281.77854837 375.51489258 284.12939453 C375.87287933 285.06265564 375.87287933 285.06265564 376.23809814 286.01477051 C380.21049802 296.36895641 384.37514308 306.64251212 388.63989258 316.87939453 C388.91007202 317.53166016 389.18025146 318.18392578 389.45861816 318.85595703 C390.72844647 321.91360301 392.02567958 324.94730472 393.38330078 327.96777344 C394.76489258 331.12939453 394.76489258 331.12939453 395.60546875 333.83398438 C396.66154487 336.66636124 397.49413038 338.10564273 399.76489258 340.12939453 C405.78707256 342.59823315 411.97787702 343.90261106 418.32739258 345.25439453 C420.13548626 345.66868935 421.94269825 346.08685031 423.74902344 346.50878906 C427.37032262 347.35008073 430.99491166 348.17318454 434.62426758 348.97900391 C441.7163819 350.55729919 448.7725308 352.26768024 455.82739258 354.00439453 C457.5078064 354.39715576 457.5078064 354.39715576 459.22216797 354.79785156 C467.2653203 356.74751719 473.78919756 358.67578372 478.71945381 365.8594532 C480.91450514 370.62552643 480.42760203 375.85670853 480.36425781 381.00610352 C480.36820053 382.29150024 480.37214325 383.57689697 480.37620544 384.90124512 C480.38614649 388.41189652 480.36506466 391.92173522 480.3377254 395.43226886 C480.31380914 399.1160485 480.31683965 402.79981439 480.31642151 406.48365784 C480.31179924 412.66982689 480.28819989 418.85568737 480.25195312 425.04174805 C480.2102414 432.17917702 480.19263895 439.31632826 480.18933338 446.45387214 C480.18572416 454.07186108 480.1668348 461.68975106 480.14221311 469.30769849 C480.13600489 471.49395046 480.13235572 473.68019489 480.129179 475.86645317 C480.1221424 479.95218554 480.09770947 484.03763805 480.07128906 488.12329102 C480.07062439 489.32717972 480.06995972 490.53106842 480.0692749 491.7714386 C479.94295236 505.95438027 479.94295236 505.95438027 476.42504883 511.08251953 C467.99662588 517.92417337 457.03996418 519.99645864 446.70239258 522.50439453 C445.49881104 522.8018457 444.29522949 523.09929688 443.05517578 523.40576172 C436.85077454 524.92884045 430.63623806 526.39756492 424.40551758 527.80908203 C423.23641846 528.07414551 422.06731934 528.33920898 420.86279297 528.61230469 C418.64479743 529.11119093 416.42529028 529.6034194 414.20410156 530.08789062 C404.32152971 531.90102576 404.32152971 531.90102576 396.74975586 537.84130859 C394.84803719 540.99165879 393.3810613 544.04022697 391.98754883 547.44189453 C391.61571724 548.33979958 391.61571724 548.33979958 391.2363739 549.25584412 C390.42757886 551.21135875 389.62742016 553.17027867 388.82739258 555.12939453 C387.68124504 557.91343703 386.53041309 560.69552457 385.37817383 563.47705078 C385.08417694 564.18797379 384.79018005 564.89889679 384.48727417 565.63136292 C382.40835231 570.63783468 380.25541659 575.60755596 378.05786133 580.56298828 C377.60933556 581.57844223 377.60933556 581.57844223 377.15174866 582.6144104 C374.82461207 587.88091842 374.82461207 587.88091842 373.65432739 590.47290039 C369.18305292 599.93655583 369.18305292 599.93655583 367.76489258 610.12939453 C368.97003931 613.39847889 368.97003931 613.39847889 371.13989258 616.50439453 C371.53273438 617.12032471 371.92557617 617.73625488 372.33032227 618.37084961 C373.78657623 620.63862242 375.27645306 622.88261845 376.76489258 625.12939453 C378.07631686 627.14532814 379.38609751 629.16233155 380.69458008 631.18017578 C383.60899666 635.66386787 386.53607397 640.13884589 389.47583008 644.60595703 C393.74455262 651.09342919 397.99325135 657.59364319 402.20629883 664.11743164 C404.75513217 668.06107025 407.33192321 671.97918661 409.97583008 675.85986328 C410.48774902 676.62161865 410.99966797 677.38337402 411.52709961 678.16821289 C412.48203791 679.58745743 413.44826185 680.9992099 414.4284668 682.40112305 C417.51365488 687.02189604 418.77062772 690.5204285 418.76489258 696.12939453 C417.46411133 698.74658203 417.46411133 698.74658203 415.45239258 701.00439453 C414.71504883 701.84486328 413.97770508 702.68533203 413.21801758 703.55126953 C409.99398822 706.93958064 406.72596072 710.26999788 403.35473633 713.51220703 C401.32419017 715.56419184 399.44860979 717.62880393 397.57229614 719.81561279 C393.9554075 723.96449865 390.15340321 727.88224938 386.2565918 731.76708984 C385.54183685 732.48359711 384.82708191 733.20010437 384.09066772 733.93832397 C381.7527956 736.28055897 379.41133045 738.61916246 377.06958008 740.95751953 C375.43231858 742.59545545 373.79520548 744.23353972 372.15823364 745.87176514 C368.73886593 749.29260209 365.31770878 752.7116365 361.89526367 756.12939453 C357.51274323 760.50620458 353.13474591 764.88750721 348.75806999 769.27016068 C345.38326681 772.6485788 342.00608378 776.02460984 338.62817764 779.39992523 C337.0127336 781.0147033 335.39802903 782.63022148 333.78408432 784.24649811 C331.52993724 786.50318849 329.27260297 788.75664223 327.0144043 791.00927734 C326.35142334 791.67428253 325.68844238 792.33928772 325.00537109 793.02444458 C314.9083384 803.07551078 314.9083384 803.07551078 307.76489258 803.12939453 C305.15929547 802.06483923 303.11923064 801.0340461 300.76489258 799.56689453 C300.0868457 799.16486816 299.40879883 798.7628418 298.71020508 798.34863281 C296.38324298 796.96104709 294.07471074 795.54531306 291.76489258 794.12939453 C289.99480701 793.06434869 288.22394117 792.00059881 286.45239258 790.93798828 C276.38792342 784.87636333 266.41064807 778.67604729 256.45239258 772.44189453 C255.45747803 771.81959961 254.46256348 771.19730469 253.4375 770.55615234 C251.97147339 769.63914551 251.97147339 769.63914551 250.47583008 768.70361328 C249.5203125 768.10597168 248.56479492 767.50833008 247.58032227 766.89257812 C245.73342905 765.73594763 243.88768449 764.57748051 242.04321289 763.41699219 C239.55898332 761.8556488 237.06902437 760.30388854 234.57739258 758.75439453 C233.85318115 758.29589111 233.12896973 757.8373877 232.3828125 757.36499023 C231.71096924 756.94950928 231.03912598 756.53402832 230.34692383 756.10595703 C229.48417847 755.56575928 229.48417847 755.56575928 228.60400391 755.01464844 C225.49344213 753.51738347 222.91701432 752.85484104 219.52124023 753.6640625 C218.74828613 753.98004395 217.97533203 754.29602539 217.17895508 754.62158203 C216.26686279 754.98872314 215.35477051 755.35586426 214.41503906 755.73413086 C213.41674072 756.15331787 212.41844238 756.57250488 211.38989258 757.00439453 C209.80446655 757.65541138 209.80446655 757.65541138 208.18701172 758.31958008 C204.37002696 759.90084484 200.56621147 761.51093258 196.76489258 763.12939453 C195.98341858 763.46138855 195.20194458 763.79338257 194.39678955 764.13543701 C188.32337721 766.71776372 182.26087489 769.32475999 176.20239258 771.94189453 C175.34760315 772.30933777 174.49281372 772.67678101 173.61212158 773.05535889 C171.13780248 774.12121303 168.66764965 775.19618995 166.19848633 776.27392578 C165.46596146 776.58829086 164.73343658 776.90265594 163.97871399 777.22654724 C152.8947041 781.97927918 152.8947041 781.97927918 145.89579773 791.28916931 C145.66399307 792.06909744 145.43218842 792.84902557 145.19335938 793.65258789 C144.92425247 794.54555069 144.65514557 795.43851349 144.37788391 796.35853577 C144.09696396 797.3231926 143.81604401 798.28784943 143.52661133 799.28173828 C143.07411263 800.80177711 143.07411263 800.80177711 142.61247253 802.3525238 C138.81413421 815.19291055 135.22376794 828.09692792 131.66357422 841.00512695 C130.77603781 844.21731051 129.87513189 847.42549407 128.97192383 850.63330078 C128.57648125 852.08634361 128.57648125 852.08634361 128.17304993 853.56874084 C125.70053971 862.27483836 121.67940264 869.31274206 113.76489258 874.12939453 C109.45504533 875.11446714 105.27220477 875.04721766 100.86645508 874.97167969 C99.59066589 874.97752075 98.31487671 874.98336182 97.00042725 874.98937988 C93.52052749 875.00412982 90.04223162 874.97549212 86.56255341 874.9379468 C82.90948915 874.90517713 79.25645565 874.91003875 75.60327148 874.91000366 C69.47002327 874.90444918 63.33738515 874.87220969 57.2043457 874.82226562 C50.12874565 874.76481298 43.053727 874.74195233 35.97790718 874.73938143 C28.42317987 874.73644951 20.8686644 874.71061186 13.31401825 874.67681456 C11.14670017 874.6684832 8.97940341 874.66411739 6.81207275 874.66054153 C2.76223374 874.65230675 -1.2869924 874.61813672 -5.33666992 874.58105469 C-6.52963684 874.5808432 -7.72260376 874.58063171 -8.95172119 874.58041382 C-16.65585939 874.48158726 -22.52807414 873.72906367 -28.98120117 869.20361328 C-32.40751672 864.53028514 -33.69899413 859.46839939 -35.29760742 853.94189453 C-35.66974365 852.70334717 -36.04187988 851.4647998 -36.42529297 850.1887207 C-38.80951956 842.22293064 -41.0697134 834.22071021 -43.34448242 826.22314453 C-43.6099437 825.29064377 -43.87540497 824.35814301 -44.14891052 823.39738464 C-45.46784118 818.75933148 -46.77851751 814.11923649 -48.07324219 809.47436523 C-51.21662802 794.72983663 -51.21662802 794.72983663 -59.11401367 782.71142578 C-60.32395101 782.0856313 -61.55423337 781.49830091 -62.79760742 780.94189453 C-63.50232178 780.59715088 -64.20703613 780.25240723 -64.93310547 779.8972168 C-67.67841023 778.58724197 -70.45113644 777.35519837 -73.23510742 776.12939453 C-73.85538818 775.8548645 -74.47566895 775.58033447 -75.11474609 775.29748535 C-85.44365838 770.72952795 -95.83516147 766.31780083 -106.25463867 761.96112061 C-109.08721124 760.77154139 -111.91052466 759.56045503 -114.73510742 758.35205078 C-116.50526647 757.60955576 -118.2760328 756.86850566 -120.04760742 756.12939453 C-120.81564697 755.79738037 -121.58368652 755.46536621 -122.375 755.12329102 C-126.78150691 753.32542811 -129.67333862 752.65882433 -134.23510742 754.12939453 C-136.90215632 755.40657288 -139.40454058 756.89447091 -141.92260742 758.44189453 C-143.03236938 759.10958862 -143.03236938 759.10958862 -144.16455078 759.79077148 C-151.19357039 764.04415013 -158.13505185 768.43916682 -165.06713867 772.84814453 C-177.57348167 780.80074604 -190.12735712 788.69000977 -202.79760742 796.37939453 C-204.43922852 797.37712891 -204.43922852 797.37712891 -206.11401367 798.39501953 C-214.6022572 803.11189078 -214.6022572 803.11189078 -218.78588867 803.15673828 C-222.2892901 801.68720945 -224.74009849 799.30384277 -227.42260742 796.69189453 C-227.99068115 796.15346924 -228.55875488 795.61504395 -229.14404297 795.06030273 C-233.4213099 790.98474271 -237.6053728 786.81492046 -241.72338867 782.57861328 C-243.59712185 780.75150488 -245.46033261 779.08402054 -247.45410156 777.40161133 C-254.35993215 771.37417209 -260.75586504 764.79434287 -267.24291992 758.32470703 C-267.95624355 757.61421078 -268.66956718 756.90371452 -269.40450668 756.17168808 C-273.17479887 752.41631314 -276.94226216 748.65812814 -280.70727539 744.89746094 C-284.57824738 741.03198229 -288.45841911 737.17587859 -292.34082222 733.32188606 C-295.34344706 730.33794884 -298.3392809 727.34726249 -301.33333969 724.35473251 C-302.76047824 722.93060393 -304.19009754 721.50895654 -305.62231827 720.08993912 C-323.33296661 702.53104863 -323.33296661 702.53104863 -324.94604492 694.66064453 C-323.93406768 689.63412019 -321.59535835 685.91980624 -318.86010742 681.62939453 C-318.30991943 680.7413916 -317.75973145 679.85338867 -317.19287109 678.93847656 C-313.29389119 672.68544878 -309.2589197 666.52637291 -305.12573242 660.42626953 C-300.52614305 653.6236838 -296.05810781 646.73281011 -291.58227539 639.84838867 C-288.32754745 634.84455357 -285.0634231 629.85143813 -281.69604492 624.92236328 C-280.91958618 623.7706665 -280.91958618 623.7706665 -280.12744141 622.59570312 C-279.19202397 621.21086463 -278.24451768 619.83407474 -277.28222656 618.46777344 C-274.34187133 614.07549827 -273.76158021 611.35227522 -274.23510742 606.12939453 C-275.27438366 602.75851091 -276.65797238 599.56779967 -278.07495117 596.34033203 C-278.47533096 595.40121979 -278.87571075 594.46210754 -279.28822327 593.49453735 C-280.57128494 590.49262968 -281.87155095 587.49854046 -283.17260742 584.50439453 C-284.01295441 582.54655624 -284.85215725 580.58822643 -285.69018555 578.62939453 C-287.35960054 574.73226546 -289.03771859 570.83906648 -290.72290039 566.94873047 C-292.4204714 563.02643452 -294.10076616 559.09739592 -295.7668457 555.16162109 C-296.37502892 553.72854111 -296.37502892 553.72854111 -296.99549866 552.26651001 C-297.76096384 550.46107672 -298.52369982 548.65448291 -299.28318787 546.8465271 C-301.9516939 539.36697208 -301.9516939 539.36697208 -307.29589844 534.07788086 C-308.10212646 533.87445068 -308.90835449 533.67102051 -309.73901367 533.46142578 C-310.68728027 533.21303955 -311.63554687 532.96465332 -312.61254883 532.70874023 C-313.66361816 532.45568115 -314.7146875 532.20262207 -315.79760742 531.94189453 C-316.90281738 531.65854248 -318.00802734 531.37519043 -319.14672852 531.08325195 C-326.74857712 529.16014405 -334.38544652 527.38493563 -342.02026367 525.59814453 C-342.95340897 525.37889816 -343.88655426 525.15965179 -344.84797668 524.9337616 C-349.53287172 523.83361434 -354.21983089 522.74534534 -358.91308594 521.68139648 C-360.66892917 521.27502137 -362.4247099 520.86837603 -364.18041992 520.46142578 C-364.97541397 520.28554932 -365.77040802 520.10967285 -366.5894928 519.9284668 C-373.41005092 518.32899773 -380.49876364 516.16297416 -384.67260742 510.19189453 C-385.14569336 509.54349609 -385.6187793 508.89509766 -386.10620117 508.22705078 C-388.16867573 504.39470187 -388.36018322 500.43054802 -388.36209106 496.14259338 C-388.36491089 495.16308212 -388.36773071 494.18357086 -388.37063599 493.17437744 C-388.36861176 492.1109613 -388.36658752 491.04754517 -388.36450195 489.9519043 C-388.36625427 488.82274094 -388.36800659 487.69357758 -388.36981201 486.53019714 C-388.37421581 482.79371608 -388.37129589 479.05728234 -388.36791992 475.32080078 C-388.36859381 472.71589651 -388.36956454 470.11099231 -388.37081909 467.50608826 C-388.37263801 462.03945404 -388.37024418 456.57283333 -388.36547852 451.10620117 C-388.36006093 444.81989624 -388.36178135 438.53362387 -388.36730492 432.24731976 C-388.37242659 426.17169557 -388.37183665 420.09608559 -388.36892319 414.02046013 C-388.36825983 411.45027601 -388.3690615 408.88009105 -388.37140274 406.30990791 C-388.39881155 367.7313833 -388.39881155 367.7313833 -381.86010742 360.50439453 C-370.38563313 351.83015696 -350.40154067 350.80543281 -336.71313477 347.91113281 C-333.40390669 347.20923342 -330.09682217 346.49782999 -326.78979492 345.78564453 C-325.29559525 345.47451721 -325.29559525 345.47451721 -323.77120972 345.15710449 C-311.45869788 342.96462024 -311.45869788 342.96462024 -301.73608398 336.02099609 C-301.15960116 334.78847089 -300.62441356 333.53602425 -300.12573242 332.27001953 C-299.81710266 331.57813538 -299.5084729 330.88625122 -299.19049072 330.17340088 C-298.1644071 327.84084697 -297.19955279 325.48804417 -296.23510742 323.12939453 C-295.49042282 321.38307186 -294.74360593 319.63765722 -293.99487305 317.89306641 C-292.002746 313.20840125 -290.07073958 308.50145184 -288.16088867 303.78271484 C-286.97984601 300.8664027 -285.78789725 297.95472513 -284.59448242 295.04345703 C-282.43383969 289.75455492 -280.31871923 284.44907565 -278.23510742 279.12939453 C-277.97157471 278.46496338 -277.70804199 277.80053223 -277.43652344 277.1159668 C-276.79047828 275.46729168 -276.17519514 273.80664694 -275.56323242 272.14501953 C-275.24773437 271.29713867 -274.93223633 270.44925781 -274.60717773 269.57568359 C-273.89476006 264.89167764 -276.16581227 260.9068027 -278.52807617 256.97705078 C-278.98569336 256.21255615 -279.44331055 255.44806152 -279.91479492 254.66040039 C-280.41237305 253.84579346 -280.90995117 253.03118652 -281.42260742 252.19189453 C-281.94725586 251.32508057 -282.4719043 250.4582666 -283.01245117 249.56518555 C-288.33787204 240.83594355 -293.94376751 232.29328344 -299.55541992 223.74658203 C-304.8947871 215.61080137 -310.14720733 207.42504239 -315.23510742 199.12939453 C-315.69240234 198.3847998 -316.14969727 197.64020508 -316.62084961 196.87304688 C-317.92941029 194.71990402 -319.21191647 192.55360116 -320.48510742 190.37939453 C-320.86844238 189.74783447 -321.25177734 189.11627441 -321.64672852 188.46557617 C-324.11022044 184.1593738 -325.07941582 181.04370241 -324.23510742 176.12939453 C-320.25903335 168.52726373 -312.87634759 162.57634369 -306.79760742 156.62939453 C-305.26725523 155.12699065 -303.73854647 153.62300252 -302.21287537 152.11584473 C-300.82726921 150.74778261 -299.43674727 149.38470443 -298.04589844 148.02197266 C-295.89902685 145.86464362 -293.89641341 143.61362589 -291.90844727 141.30932617 C-288.10706592 136.92377019 -284.06604146 132.81606502 -279.95776367 128.71923828 C-279.18758408 127.94810196 -278.41740448 127.17696564 -277.62388611 126.38246155 C-276.00569369 124.763593 -274.3862553 123.14596902 -272.765625 121.52954102 C-270.3044351 119.07370735 -267.84862933 116.61258088 -265.39331055 114.15087891 C-263.81094876 112.569178 -262.22827675 110.98778736 -260.64526367 109.40673828 C-259.92105728 108.68050766 -259.19685089 107.95427704 -258.45069885 107.20603943 C-254.44092342 103.21438381 -250.32817805 99.41624139 -246.04450989 95.72087097 C-243.59181153 93.56357776 -241.31042907 91.26556047 -239.03588867 88.92236328 C-238.13676758 88.00648438 -237.23764648 87.09060547 -236.3112793 86.14697266 C-234.92041095 84.72268415 -233.5296151 83.29830716 -232.14501953 81.86791992 C-230.78220089 80.46268447 -229.40916004 79.06738553 -228.03588867 77.67236328 C-227.23320557 76.84760498 -226.43052246 76.02284668 -225.60351562 75.1730957 C-222.06165859 72.11682468 -219.52416855 71.07134212 -214.85229492 71.28173828 C-210.92926638 72.2010657 -207.7935784 73.66329415 -204.36010742 75.69189453 C-203.69084229 76.07756592 -203.02157715 76.4632373 -202.33203125 76.8605957 C-192.44867787 82.6450347 -182.87997541 88.96028784 -173.26489258 95.17529297 C-163.19426422 101.67048309 -153.06692003 108.07741183 -142.79760742 114.25439453 C-142.18836426 114.62105225 -141.57912109 114.98770996 -140.95141602 115.36547852 C-139.38661795 116.2991369 -137.81136086 117.21520853 -136.23510742 118.12939453 C-135.58413086 118.55994141 -134.9331543 118.99048828 -134.26245117 119.43408203 C-127.41330648 121.78311432 -119.54296146 116.9162749 -113.44995117 114.21142578 C-112.31666885 113.71656174 -111.18338654 113.22169769 -110.01576233 112.71183777 C-106.39778801 111.12990553 -102.78514679 109.53619355 -99.17260742 107.94189453 C-96.7699637 106.88835915 -94.36697214 105.83561668 -91.96362305 104.78369141 C-87.38590521 102.77917518 -82.80964523 100.77139383 -78.23461914 98.76074219 C-59.65530914 90.6027951 -59.65530914 90.6027951 -55.23510742 89.12939453 C-54.34928629 87.09753181 -54.34928629 87.09753181 -53.8190918 84.5390625 C-53.44627075 83.03711334 -53.44627075 83.03711334 -53.06591797 81.50482178 C-52.79175049 80.39093079 -52.51758301 79.27703979 -52.23510742 78.12939453 C-51.56465353 75.68708084 -50.88507534 73.24725966 -50.19799805 70.80957031 C-49.82357775 69.47182536 -49.44935616 68.13402478 -49.07531738 66.7961731 C-47.62513458 61.62223202 -46.16989591 56.44971399 -44.71227264 51.27786446 C-43.6088486 47.36232259 -42.50832031 43.44601462 -41.41430664 39.52783203 C-40.34746512 35.70726498 -39.273449 31.88878282 -38.19438171 28.07165146 C-37.78678971 26.6251414 -37.38173424 25.17791401 -36.97932434 23.72995377 C-36.41714448 21.7089149 -35.84577858 19.6906851 -35.2722168 17.67285156 C-34.78948303 15.95390182 -34.78948303 15.95390182 -34.29699707 14.20022583 C-32.40588951 8.73141624 -29.54928553 3.80710385 -24.23510742 1.12939453 C-16.29226438 -0.226069 -8.03624677 -0.01527717 0 0 Z M27.76489258 183.12939453 C26.83064453 183.33338867 25.89639648 183.53738281 24.93383789 183.74755859 C-9.99014042 191.54501492 -42.98467016 205.43660518 -72.23510742 226.12939453 C-72.97905762 226.65549316 -73.72300781 227.1815918 -74.48950195 227.72363281 C-85.59238283 235.63012602 -96.16187916 243.94734948 -106.23510742 253.12939453 C-106.9229834 253.75555664 -107.61085938 254.38171875 -108.31958008 255.02685547 C-110.4661718 256.98998197 -112.60301782 258.96303265 -114.73510742 260.94189453 C-115.38181396 261.53993896 -116.02852051 262.1379834 -116.69482422 262.75415039 C-120.60024556 266.42272617 -124.19166923 270.25760677 -127.6809082 274.32348633 C-129.53744547 276.48069748 -131.47931505 278.55034321 -133.42260742 280.62939453 C-164.055751 314.70095218 -183.12744479 358.12900551 -190.23510742 403.12939453 C-190.35370117 403.86174316 -190.47229492 404.5940918 -190.59448242 405.34863281 C-194.40279208 430.05164144 -193.34718874 456.56815533 -189.23510742 481.12939453 C-189.00162598 482.56822998 -189.00162598 482.56822998 -188.76342773 484.03613281 C-182.37006396 522.05814354 -166.87135467 561.21699071 -142.23510742 591.12939453 C-141.00727539 592.65886719 -141.00727539 592.65886719 -139.75463867 594.21923828 C-133.48810106 601.86990078 -126.6391553 608.92920651 -119.67260742 615.94189453 C-118.81054688 616.81322021 -117.94848633 617.6845459 -117.06030273 618.58227539 C-111.09586638 624.51791713 -104.83418646 629.91306325 -98.23510742 635.12939453 C-97.29304443 635.8801123 -96.35098145 636.63083008 -95.38037109 637.40429688 C-49.3659763 673.70603985 14.92179834 691.66757857 72.97973633 684.93408203 C124.54259345 678.15493743 174.59466143 655.67671648 212.76489258 620.12939453 C214.11495422 618.95797999 215.46896772 617.79110033 216.82739258 616.62939453 C224.03291502 610.33908966 230.63900752 603.46844507 236.76489258 596.12939453 C237.18609375 595.63262207 237.60729492 595.13584961 238.04125977 594.62402344 C283.9648021 540.21565126 302.6204862 466.7237173 297.26098633 396.60595703 C292.0391471 340.3133389 269.96057869 288.93586227 230.76489258 248.12939453 C229.90895508 247.23220703 229.05301758 246.33501953 228.17114258 245.41064453 C188.46989852 204.70430569 130.16834901 180.80165004 73.66333008 179.92626953 C58.17188746 179.75210404 42.96096294 179.75048233 27.76489258 183.12939453 Z " fill="#000000" transform="translate(594.235107421875,210.87060546875)"/>
<path d="M0 0 C30.2795145 28.27548814 50.16956446 64.08614056 60.375 104.125 C60.62056641 105.07375 60.86613281 106.0225 61.11914062 107 C65.10592523 123.15752282 65.8512011 138.92959958 65.875 155.5 C65.88173737 156.93771759 65.88173737 156.93771759 65.88861084 158.40447998 C65.92217299 176.01857522 64.89195553 194.09332169 59.5625 211 C59.17457275 212.28620239 59.17457275 212.28620239 58.77880859 213.59838867 C54.52732987 227.43822659 49.16799453 240.34340129 42.375 253.125 C41.77042969 254.28644531 41.16585938 255.44789063 40.54296875 256.64453125 C17.99603485 298.17835685 -21.48730371 327.13585763 -66.07958984 341.03881836 C-119.65009284 356.82016341 -181.16831312 353.36081064 -230.86328125 326.83203125 C-259.54499339 310.86507442 -282.34020039 288.20896938 -300.625 261.125 C-291.48283672 295.91093126 -265.26299544 326.85017402 -234.56884766 344.80419922 C-231.29293982 346.65462075 -227.97213762 348.40741218 -224.625 350.125 C-223.72346191 350.59413818 -223.72346191 350.59413818 -222.80371094 351.07275391 C-204.503306 360.4839605 -184.55077531 365.43948997 -164.625 370.125 C-164.625 370.455 -164.625 370.785 -164.625 371.125 C-226.84536815 372.22732936 -287.98278393 356.72200228 -333.87109375 312.78515625 C-334.77988281 311.90730469 -335.68867188 311.02945312 -336.625 310.125 C-337.27597656 309.52558594 -337.92695313 308.92617188 -338.59765625 308.30859375 C-371.27023148 277.48978165 -388.0012448 230.42880078 -389.72998047 186.45458984 C-391.28712411 133.11516637 -374.3457123 87.21901756 -337.9609375 48.2734375 C-332.22993993 42.39689078 -326.11127242 37.14851769 -319.625 32.125 C-319.06683594 31.6904248 -318.50867188 31.25584961 -317.93359375 30.80810547 C-309.24474297 24.0885684 -300.30761426 18.29495354 -290.59277344 13.17041016 C-288.71624167 12.17347355 -286.86216313 11.14291369 -285.0078125 10.10546875 C-241.52575295 -13.58451606 -186.14049702 -18.33671333 -138.88867188 -4.56640625 C-115.30253969 2.63764103 -93.96652773 14.69505629 -75.625 31.125 C-74.73039062 31.88683594 -73.83578125 32.64867187 -72.9140625 33.43359375 C-66.71404617 38.78468477 -61.62351866 44.6516534 -56.625 51.125 C-55.89539063 52.03894531 -55.16578125 52.95289063 -54.4140625 53.89453125 C-44.2028719 66.98993534 -32.99886611 83.5888908 -29.625 100.125 C-31.0590009 78.93640052 -35.93548524 59.0787264 -45.625 40.125 C-45.94726562 39.49271484 -46.26953125 38.86042969 -46.6015625 38.20898438 C-53.88934025 24.18149346 -63.77362691 12.49236057 -74.625 1.125 C-75.43710937 0.26003906 -76.24921875 -0.60492188 -77.0859375 -1.49609375 C-107.95510341 -33.51411211 -148.97329542 -45.79332757 -192.125 -48 C-193.7383091 -48.08672308 -195.35159064 -48.17396039 -196.96484375 -48.26171875 C-200.85127215 -48.47204251 -204.73800063 -48.67551868 -208.625 -48.875 C-208.625 -49.535 -208.625 -50.195 -208.625 -50.875 C-180.94579676 -55.98779351 -180.94579676 -55.98779351 -167.625 -57.1875 C-166.38532471 -57.30134033 -166.38532471 -57.30134033 -165.12060547 -57.41748047 C-104.51539439 -62.29460061 -44.67771031 -40.83712376 0 0 Z M-259.93847656 86.7109375 C-281.09920702 113.53485055 -290.62940215 146.94812805 -287.19140625 180.87109375 C-284.25426353 204.71523973 -274.8540227 225.751921 -259.625 244.125 C-258.67367187 245.32382812 -258.67367187 245.32382812 -257.703125 246.546875 C-239.03898526 269.03955623 -210.08230931 281.09546162 -181.546875 283.8125 C-152.30480695 286.14254526 -120.94087779 277.57297138 -98.34375 258.43359375 C-95.70462322 256.05341355 -93.14190434 253.6334725 -90.625 251.125 C-89.7896875 250.29613281 -88.954375 249.46726562 -88.09375 248.61328125 C-67.82493316 228.18410985 -55.4090921 201.83156795 -55.3515625 172.82226562 C-55.35575195 172.16137939 -55.35994141 171.50049316 -55.36425781 170.81958008 C-55.37492931 168.82570766 -55.36331994 166.83175693 -55.3515625 164.83789062 C-55.41384281 133.33962206 -67.39731077 103.65323934 -89.0390625 80.6796875 C-109.6317802 60.33582439 -136.60855549 47.19467422 -165.75390625 46.88671875 C-166.50606918 46.878647 -167.25823212 46.87057526 -168.03318787 46.86225891 C-169.61723601 46.8485211 -171.20131247 46.83775362 -172.78540039 46.82983398 C-174.37435855 46.81836778 -175.96327984 46.79800169 -177.55200195 46.76831055 C-209.55157061 46.17283048 -239.59115027 62.14286471 -259.93847656 86.7109375 Z " fill="#000000" transform="translate(809.625,482.875)"/>
</svg>
